<?xml version="1.0" standalone="no"?>
<!DOCTYPE svg PUBLIC "-//W3C//DTD SVG 1.1//EN" "http://www.w3.org/Graphics/SVG/1.1/DTD/svg11.dtd" >
<!--
2013-9-30: Created.
-->
<svg>
<metadata>
Created by iconfont
</metadata>
<defs>

<font id="iconfont" horiz-adv-x="1024" >
  <font-face
    font-family="iconfont"
    font-weight="500"
    font-stretch="normal"
    units-per-em="1024"
    ascent="896"
    descent="-128"
  />
    <missing-glyph />
    
    <glyph glyph-name="fanhuidingbu" unicode="&#58931;" d="M752.736 464.937C757.159 755.425 520.41 887.03 504.518 895.59V896l-0.45-0.205-0.41 0.205v-0.41c-15.934-8.56-252.723-140.165-248.259-430.653-48.21-31.457-98.713-87.368-90.685-184.074 8.028-96.666 101.007-160.768 136.601-157.287 35.595 3.482 25.232 30.31 25.232 30.31l12.206 50.095s52.47-80.569 69.304-80.528c15.114 1.23 87 0.123 95.6 0h0.82c8.602 0.123 80.486 1.23 95.6 0 16.794 0 69.305 80.528 69.305 80.528l12.165-50.094s-10.322-26.83 25.272-30.31c35.595-3.482 128.574 60.62 136.602 157.286 8.028 96.665-42.475 152.617-90.685 184.074z m-248.669 4.26c-6.758 0.123-94.781 3.359-102.891 107.192 2.95 98.714 95.97 107.438 102.891 107.93 6.964-0.492 99.943-9.216 102.892-107.93-8.11-103.833-96.174-107.07-102.892-107.192z m-52.019-500.531c0-11.838-9.42-21.382-21.012-21.382a21.217 21.217 0 0 0-21.054 21.34V74.26c0 11.797 9.421 21.382 21.054 21.382 11.591 0 21.012-9.585 21.012-21.382v-105.635z m77.333-57.222a21.504 21.504 0 0 0-21.34-21.626 21.504 21.504 0 0 0-21.34 21.626V68.526c0 11.96 9.543 21.668 21.299 21.668 11.796 0 21.38-9.708 21.38-21.668v-157.082z m71.147 82.043c0-11.796-9.42-21.34-21.053-21.34a21.217 21.217 0 0 0-21.013 21.34v75.367c0 11.755 9.421 21.299 21.013 21.299 11.632 0 21.053-9.544 21.053-21.3v-75.366z"  horiz-adv-x="1024" />

    
    <glyph glyph-name="fanhuidingbu-px" unicode="&#58934;" d="M736.802358 502.808404a23.922233 23.922233 0 0 1-12.523048 4.174349C700.678181 790.999059 555.378714 877.215428 525.837165 891.825651a25.206648 25.206648 0 0 1-27.614926 0c-29.059893-14.289119-175.001568-100.505488-198.442145-385.324553a23.922233 23.922233 0 0 1-12.523048-4.013798c-187.203512-128.441518-96.331138-303.282534-96.331138-305.048604a24.082785 24.082785 0 0 1 18.302916-12.523048h3.050486a24.082785 24.082785 0 0 1 17.821261 7.867042l105.322044 115.597366-13.165255-59.564753a24.082785 24.082785 0 0 1 23.440577-29.220446H677.879812a24.082785 24.082785 0 0 1 23.440577 29.220446l-12.6836 59.564753 105.000941-115.436814a24.082785 24.082785 0 0 1 17.82126-7.867043h3.050486a24.082785 24.082785 0 0 1 18.62402 12.6836c0 1.766071 90.711822 176.928191-96.331138 305.048605z m-224.772656 341.493885a293.970524 293.970524 0 0 0 96.331138-105.482596h-192.662276a293.970524 293.970524 0 0 0 96.331138 105.482596z m-120.092819-152.845406a23.922233 23.922233 0 0 1 6.100972-0.963311h228.786454a23.922233 23.922233 0 0 1 5.458764 0c32.110379-74.335528 53.945437-180.781436 44.954531-330.89746H346.8218c-8.990906 151.079335 13.486359 257.525243 45.115083 331.860771zM221.912424 255.558482c-10.917529 44.793979-13.325807 125.23048 74.817184 195.070555 0-33.87645 0-70.321731 3.050486-109.335842z m316.768893 13.004704H376.202797l9.793666 44.312324h252.066478l9.793666-44.312324z m263.305111-13.004704l-78.028222 85.734713c2.889934 39.014111 3.853246 75.459392 3.050486 109.496394 88.464095-70.803387 85.895265-151.239887 75.138288-195.231107zM510.905839 418.197554a108.372531 108.372531 0 1 1-108.372531 108.372531 108.533082 108.533082 0 0 1 108.372531-108.372531z m0 168.579492a60.206961 60.206961 0 1 0-60.206962-60.206961 60.206961 60.206961 0 0 0 60.206962 60.206961zM364.964164 175.282534a24.082785 24.082785 0 0 1-24.082784-24.082785v-144.496707a24.082785 24.082785 0 0 1 48.165569 0v144.496707a24.082785 24.082785 0 0 1-24.082785 24.082785zM473.336695 124.869238a24.082785 24.082785 0 0 1-24.082785-24.082785v-204.703668a24.082785 24.082785 0 0 1 48.165569 0V100.786453a24.082785 24.082785 0 0 1-24.082784 24.082785zM563.566861 82.644089a24.082785 24.082785 0 0 1-24.082784-24.082785v-81.239259a24.082785 24.082785 0 0 1 48.165569 0v81.239259a24.082785 24.082785 0 0 1-24.082785 24.082785zM662.948485 173.034807a24.082785 24.082785 0 0 1-24.082784-24.082784v-246.607714a24.082785 24.082785 0 0 1 48.165569 0V148.952023a24.082785 24.082785 0 0 1-24.082785 24.082784z"  horiz-adv-x="1024" />

    
    <glyph glyph-name="huojian" unicode="&#58939;" d="M684.4 479.1s23.5-11.8 32-32.6v-128.2c8.7-20.9 102.9-43.3 113-63.6v-128.2H641s-69-32.3-132.1-32.3h3.7c-63.1 0-132.1 32.3-132.1 32.3H192V254.7c10 20.3 106.7 42.7 115.4 63.6V446.5c8.6 20.8 28.3 28.8 28.3 28.8M512.6 84.2h-3.7c-0.4 0-0.7 0-1.1 0.1-57.7 1.4-117.5 26.9-129.5 32.2H192c-5.5 0-10 4.5-10 10V254.7c0 1.5 0.4 3 1 4.4 6.3 12.8 27.7 21.9 62.1 35.9 13 5.3 26.4 10.7 36.7 15.9 10.3 5.2 14.2 8.6 15.6 10.2V446.5c0 1.3 0.3 2.6 0.8 3.8 10.1 24.4 32.8 33.9 33.8 34.2 5.1 2.1 10.9-0.4 13-5.5 2.1-5.1-0.4-10.9-5.5-13-0.1 0-14.9-6.4-22.1-21.6v-126.1c0-1.3-0.3-2.6-0.8-3.8-5.7-13.8-28.1-23.4-64-38-12.6-5.1-25.6-10.4-35.6-15.4-9.5-4.8-13.4-7.9-15-9.5v-115.1h178.5c1.5 0 2.9-0.3 4.2-0.9 0.7-0.3 66.4-30.7 126-31.3 59.6 0.6 125.3 31 126 31.3 1.3 0.6 2.8 0.9 4.2 0.9h178.4V251.6c-1.6 1.6-5.5 4.8-14.7 9.5-9.8 5-22.5 10.3-34.8 15.4-35.2 14.6-57 24.2-62.7 38-0.5 1.2-0.8 2.5-0.8 3.8V444.4c-7.5 15.9-26.3 25.7-26.5 25.8-4.9 2.5-6.9 8.5-4.4 13.4s8.5 6.9 13.4 4.4c1.1-0.6 27-13.8 36.8-37.8 0.5-1.2 0.7-2.5 0.7-3.8V321c1.4-1.6 5.2-4.9 15.2-10.1 10.1-5.2 23.3-10.7 36-16 33.6-13.9 54.5-23.1 60.8-35.8 0.7-1.4 1-2.9 1-4.5v-128.2c0-5.5-4.5-10-10-10H643.2c-12-5.4-71.8-30.9-129.5-32.2h-1.1zM651 442.1s19-9.3 25.9-25.8v-101.5c7.1-16.5 83.1-34.3 91.3-50.4v-101.5H616s-55.8-25.6-106.8-25.6h3c-51 0-106.8 25.6-106.8 25.6H253.3V264.4c8.1 16.1 86.2 33.8 93.2 50.4V416.3c6.9 16.5 22.8 22.8 22.8 22.8M384.5 249.3V605.8c0 45.5 81.9 180 127.4 180s127.4-134.5 127.4-180v-356.5H384.5M639.3 239.3H384.5c-5.5 0-10 4.5-10 10V605.8c0 27.6 24.3 76.5 48.3 112.6 19.2 28.9 56.4 77.4 89.1 77.4 32.7 0 69.9-48.5 89.1-77.4 24-36.1 48.3-85 48.3-112.6v-356.5c0-5.5-4.5-10-10-10z m-244.8 20h234.8V605.8c0 19.7-18.9 62.4-45 101.5-27.3 41-56.4 68.5-72.4 68.5s-45.2-27.5-72.4-68.5c-26.1-39.1-45-81.8-45-101.5v-346.5zM635.6 605.8c0 45.5-81.9 180-127.4 180s-123.4-134.5-123.4-180h250.8zM635.6 595.8H384.8c-5.5 0-10 4.5-10 10 0 27.8 23.2 76.5 46.2 112.5 13.8 21.5 28.2 39.8 41.7 53 16.8 16.3 32.1 24.6 45.4 24.6 13.4 0 28.8-8.2 46-24.5 13.9-13.2 28.8-31.5 43.1-52.9 24-36.1 48.3-85 48.3-112.6 0.1-5.6-4.4-10.1-9.9-10.1z m-239.7 20h228.5c-4.5 22.1-21.5 58.1-43.8 91.5-27.3 41-56.4 68.5-72.4 68.5-16.2 0-43.8-26.8-70.3-68.3-21.4-33.4-37.7-69.5-42-91.7zM417.9 573.3h188V283h-188zM511.9 127.3c-5.5 0-10 4.5-10 10V368.8c0 5.5 4.5 10 10 10s10-4.5 10-10v-231.5c0-5.5-4.5-10-10-10zM192 50.4c-5.5 0-10 4.5-10 10v39.1c0 5.5 4.5 10 10 10s10-4.5 10-10v-39.1c0-5.5-4.5-10-10-10zM256 0.4c-5.5 0-10 4.5-10 10v89.1c0 5.5 4.5 10 10 10s10-4.5 10-10v-89.1c0-5.5-4.5-10-10-10zM320.1 30.4c-5.5 0-10 4.5-10 10v59.1c0 5.5 4.5 10 10 10s10-4.5 10-10v-59.1c0-5.5-4.5-10-10-10zM704.1 50.4c-5.5 0-10 4.5-10 10v39.1c0 5.5 4.5 10 10 10s10-4.5 10-10v-39.1c0-5.5-4.5-10-10-10zM768.1 0.4c-5.5 0-10 4.5-10 10v89.1c0 5.5 4.5 10 10 10s10-4.5 10-10v-89.1c0-5.5-4.5-10-10-10zM832.2 30.4c-5.5 0-10 4.5-10 10v59.1c0 5.5 4.5 10 10 10s10-4.5 10-10v-59.1c0-5.5-4.5-10-10-10zM421 523.5c-5.5 0-10 4.5-10 10v38.3c0 5.5 4.5 10 10 10h38.4c5.5 0 10-4.5 10-10s-4.5-10-10-10H431v-28.3c0-5.5-4.5-10-10-10zM421.4 503.5m-9.8 0a9.8 9.8 0 1 1 19.6 0 9.8 9.8 0 1 1-19.6 0ZM511.9 423.9m-55.2 0a55.2 55.2 0 1 1 110.4 0 55.2 55.2 0 1 1-110.4 0ZM511.9 358.7c-36 0-65.2 29.2-65.2 65.2s29.2 65.2 65.2 65.2 65.2-29.2 65.2-65.2-29.2-65.2-65.2-65.2z m0 110.4c-24.9 0-45.2-20.3-45.2-45.2s20.3-45.2 45.2-45.2 45.2 20.3 45.2 45.2-20.3 45.2-45.2 45.2zM511.9 423.9m-27.9 0a27.9 27.9 0 1 1 55.8 0 27.9 27.9 0 1 1-55.8 0ZM330.1 153.4h-66.8c-5.5 0-10 4.5-10 10s4.5 10 10 10h66.8c5.5 0 10-4.5 10-10s-4.5-10-10-10z"  horiz-adv-x="1024" />

    
    <glyph glyph-name="fanhuidingbu1" unicode="&#59014;" d="M332.1-11H85.9c-42 0-76.1 34.1-76.1 76.1V169c0 25.5 12.7 49.2 33.9 63.3l139 92.7c13.5 9 31.9 5.4 41-8.2 9.1-13.6 5.4-31.9-8.2-41l-139-92.7c-4.8-3.2-7.6-8.5-7.6-14.2v-104c0-9.4 7.6-17 17-17h246.2c16.3 0 29.5-13.2 29.5-29.5S348.4-11 332.1-11zM938.1-11H691.9c-16.3 0-29.5 13.2-29.5 29.5s13.2 29.5 29.5 29.5H938c9.4 0 17 7.6 17 17V169c0 5.7-2.8 11-7.5 14.2l-139 92.7c-13.6 9-17.3 27.4-8.2 41 9.1 13.6 27.4 17.2 41 8.2l139-92.7c21.2-14.1 33.9-37.8 33.9-63.3v-104c0-42-34.2-76.1-76.1-76.1zM776.7-11h-54.6c-16.3 0-29.5 13.2-29.5 29.5s13.2 29.5 29.5 29.5h54.6l-0.1 382.2c0 93.6-95.8 247.5-244.1 392-11.4 11.1-29.4 11.2-40.9 0-148.3-144.6-244.1-298.5-244.1-392v-382.3l54.5 0.2c16.3 0 29.5-13.2 29.5-29.5S318.2-11 301.9-11h-54.6c-32.5 0-58.9 26.4-58.9 58.9V430.2c0 110.4 100.4 276.8 262 434.3 34.6 33.7 88.8 33.7 123.3 0 161.6-157.5 262-324 262-434.3v-382.3c0-32.5-26.5-58.9-59-58.9zM512 336.7c-71.9 0-130.4 58.5-130.4 130.3 0 71.9 58.5 130.4 130.4 130.4S642.4 539 642.4 467.1 583.9 336.7 512 336.7z m0 201.7c-39.3 0-71.3-32-71.3-71.3s32-71.3 71.3-71.3 71.3 32 71.3 71.3-32 71.3-71.3 71.3zM419.3-54.6c-16.3 0-29.5 13.2-29.5 29.5v84c0 16.3 13.2 29.5 29.5 29.5s29.5-13.2 29.5-29.5v-84c0-16.3-13.2-29.5-29.5-29.5zM604.7-54.6c-16.3 0-29.5 13.2-29.5 29.5v84c0 16.3 13.2 29.5 29.5 29.5s29.5-13.2 29.5-29.5v-84c0-16.3-13.2-29.5-29.5-29.5zM512-121.9c-16.3 0-29.5 13.2-29.5 29.5V58.9c0 16.3 13.2 29.5 29.5 29.5s29.5-13.2 29.5-29.5v-151.3c0-16.2-13.2-29.5-29.5-29.5z"  horiz-adv-x="1024" />

    
    <glyph glyph-name="shouyefanhuidingbu" unicode="&#59102;" d="M691.740745 679.643429c38.560914-80.120686 57.607314-163.313371 53.335772-251.318858-0.482743-7.445943 2.369829-11.834514 8.0896-16.208457 18.578286-13.575314 37.141943-28.013714 55.237485-42.027885 43.797943-32.402286 61.44-74.869029 52.370286-125.220572-9.991314-53.8624-22.849829-107.710171-35.240229-161.133714-8.0896-33.718857-48.084114-46.855314-76.653714-24.956343a4020.311771 4020.311771 0 0 0-97.616457 76.624457c-16.193829 13.136457-15.711086 13.575314-32.387657 1.755429-44.280686-31.085714-92.862171-42.481371-147.602286-30.661486-28.101486 5.705143-52.384914 18.388114-74.298514 35.035429-6.670629 5.266286-10.474057 4.373943-16.1792-0.877715-33.353143-27.150629-67.145143-54.740114-100.951772-81.437257-29.052343-23.215543-69.997714-10.079086-78.570057 24.078629-6.202514 24.078629-11.439543 48.157257-17.627428 72.250514L165.068288 233.033143c-11.410286 47.279543 0.482743 89.746286 38.107429 124.342857 21.430857 19.704686 46.1824 36.337371 69.514971 53.408914 4.286171 3.072 6.670629 6.144 6.202514 11.834515-4.768914 96.329143 19.031771 186.514286 63.7952 273.217828a676.732343 676.732343 0 0 0 93.330286 136.6016c19.061029 21.021257 39.058286 41.1648 63.809829 56.919772 13.341257 8.762514 14.292114 8.762514 27.136 0.438857 12.873143-9.186743 25.731657-18.388114 36.205714-28.891429 54.272-53.423543 96.6656-114.2784 128.570514-181.262628z m-106.305828-47.879315c-38.370743 39.306971-104.1408 40.301714-143.008915 2.486857-40.360229-39.3216-46.328686-103.0144-1.989485-148.304457 36.366629-38.326857 105.135543-38.326857 142.994285-0.497371 19.938743 18.914743 31.392914 45.275429 30.910172 72.645486a98.552686 98.552686 0 0 1-28.906057 73.669485zM387.364059 69.690514c8.9088 8.2944 18.285714 9.172114 30.939429 3.4816 49.181257-22.235429 100.264229-26.170514 153.673143-12.214857 11.702857 3.057371 22.966857 7.416686 33.733486 12.214857 19.675429 8.733257 37.010286-1.301943 37.4784-21.796571 0.468114-30.134857 0-60.225829 0.468114-90.331429 0-9.596343-3.2768-17.890743-13.589943-22.264685-10.298514-4.359314-19.675429-2.603886-28.101486 4.373942-5.632 4.359314-9.845029 9.157486-14.994285 13.955658-9.376914 8.733257-9.845029 8.2944-15.4624-2.179658L535.405202-112.698514c-3.2768-6.538971-8.426057-12.214857-16.384-14.394515-11.717486-3.072-22.498743 1.7408-29.052343 13.077943-12.653714 23.127771-24.839314 45.816686-37.4784 68.944457-5.163886 10.0352-6.100114 10.0352-14.526171 2.194286-5.163886-4.8128-10.313143-9.610971-16.398629-14.409143-7.972571-6.538971-17.349486-8.2944-27.179885-4.359314-9.8304 3.920457-14.058057 11.337143-14.058057 20.948114V53.540571c0 6.992457 2.340571 12.653714 7.021714 16.149943"  horiz-adv-x="1024" />

    
    <glyph glyph-name="zuojiantou" unicode="&#58958;" d="M274.510074 434.795896c130.168642 125.846196 260.332167 251.684206 390.490575 377.400442 53.595662 51.864228 133.49848-32.354895 79.653131-84.346013-115.838262-112.008027-231.6755-223.893256-347.450317-335.904353C513.596358 276.111804 629.989251 160.147676 746.444567 44.309414c52.978609-52.733015-26.921139-136.953162-79.712483-84.282568C535.946388 90.126926 405.233348 220.289428 274.510074 350.453976 252.90194 372.06211 252.342192 413.436426 274.510074 434.795896L274.510074 434.795896zM274.510074 434.795896"  horiz-adv-x="1024" />

    
    <glyph glyph-name="tianping" unicode="&#58954;" d="M778.9024 67.5168H245.7328l104.6576 289.9488h323.856l104.656-289.9488z m-496.7136 25.6h460.2576l-86.176 238.7488h-287.904l-86.1776-238.7488zM513.2464 123.408c-40.8064 0-74.0032 33.9984-74.0032 75.7888s33.1984 75.7888 74.0032 75.7888 74.0048-33.9984 74.0048-75.7888-33.1984-75.7888-74.0048-75.7888z m0 125.9776c-26.6896 0-48.4032-22.5136-48.4032-50.1888s21.7136-50.1888 48.4032-50.1888c26.6912 0 48.4048 22.5136 48.4048 50.1888s-21.7136 50.1888-48.4048 50.1888zM513.2464 260.9808v-61.784M500.4464 260.9808h25.6v-61.784h-25.6zM501.1664 211.9968h69.2832v-25.6h-69.2832zM500.4464 497.064h25.6v-153.128h-25.6zM841.1472 484.264H185.3472c-13.0944 0-23.7456 10.6528-23.7456 23.7472v101.2544h25.6v-99.4016h652.0928v99.4016h25.6v-101.2544c0-13.0944-10.6544-23.7472-23.7472-23.7472zM276.8192 596.4656H70.8768c-9.408 0-16.2368 8.6-16.2368 20.4512v70.7664h25.6v-65.616h187.216v65.616h25.6v-70.7664c0-11.8496-6.8288-20.4512-16.2368-20.4512zM955.064 596.4656H749.1232c-9.4096 0-16.2368 8.6-16.2368 20.4512v70.7664h25.6v-65.616h187.216v65.616h25.6v-70.7664c-0.0016-11.8496-6.8288-20.4512-16.2384-20.4512z"  horiz-adv-x="1024" />

    
    <glyph glyph-name="icon-test1" unicode="&#58924;" d="M512.3 827.9C272.2 827.9 77 632.6 77 392.6s195.3-435.3 435.3-435.3 435.3 195.3 435.3 435.3S752.3 827.9 512.3 827.9z m0-833.9c-219.8 0-398.7 178.8-398.7 398.7s178.8 398.7 398.7 398.7S911 612.6 911 392.7 732.1-6 512.3-6zM519.6 261c10.1 0 18.3 8.2 18.3 18.3v362c0 10.1-8.2 18.3-18.3 18.3-10.1 0-18.3-8.2-18.3-18.3v-362.1c0-10 8.2-18.2 18.3-18.2zM516.9 169.5m-29.3 0a29.3 29.3 0 1 1 58.6 0 29.3 29.3 0 1 1-58.6 0Z"  horiz-adv-x="1024" />

    
    <glyph glyph-name="shangcheng" unicode="&#58889;" d="M192.111 479.873h136.801v-447.606H192.111zM661.28 479.873h136.77v-447.606H661.28zM529.726 330.13a75.346 75.09 90 1 1 150.18 0 75.346 75.09 90 1 1-150.18 0ZM411.355 193.106c-31.971 0-57.982 26.011-57.982 57.982v21.32c0 31.971 26.011 57.982 57.982 57.982h34.215c31.971 0 57.982-26.011 57.982-57.982v-21.32c0-31.971-26.011-57.982-57.982-57.982h-34.215zM380.144 420.276h96.636v-141.708h-96.636zM636.596 293.13c-5.775 0-11.37 0.393-16.78 0.775-5.03 0.354-9.781 0.688-14.272 0.688-4.49 0-9.242-0.334-14.273-0.688-5.41-0.381-11.006-0.775-16.78-0.775-7.014 0-28.358 0-46.648 14.69-11.048 8.873-24.218 25.676-24.218 55.336 0 56.41 45.72 102.303 101.918 102.303 56.197 0 101.917-45.893 101.917-102.303 0-29.659-13.17-46.462-24.219-55.336-18.289-14.69-39.631-14.69-46.645-14.69zM185.609-90.228c-37.3 0-67.645 30.346-67.645 67.645V146.62c0 37.3 30.346 67.646 67.645 67.646h665.068c37.3 0 67.645-30.346 67.645-67.646v-169.203c0-37.299-30.345-67.645-67.645-67.645H185.609zM895.422 366.247c-27.581 0-54.554 9.252-76.297 26.111-21.217-16.461-47.803-26.111-76.366-26.111-28.602 0-55.19 9.645-76.399 26.105a124.366 124.366 0 0 0-76.264-26.105c-28.568 0-55.115 9.699-76.302 26.137-21.79-16.917-48.555-26.137-76.362-26.137-28.58 0-55.142 9.711-76.332 26.158a124.382 124.382 0 0 0-76.332-26.158 124.449 124.449 0 0 0-76.357 26.179c-21.266-16.493-47.866-26.179-76.306-26.179-68.468 0-124.22 55.512-124.648 123.914l-0.043 0.501c-0.176 2.076-0.454 5.342-0.363 9.344-0.166 4.276 0.154 7.708 0.367 9.822 0.395 23.771 9.875 46.439 26.366 63.431l103.07 155.212c7.996 34.761 39.181 60.761 76.323 60.761h601.734c37.329 0 68.641-26.261 76.442-61.286l103.566-161.961a125.298 125.298 0 0 0 10.314-16.13l7.953-12.438v-5.69c4.576-13.13 6.889-26.796 6.889-40.771-0.003-68.764-55.92-124.709-124.653-124.709zM240.429 429.159h40.165v-350.971h-40.165V429.159zM709.597 429.159h40.134v-350.971h-40.134V429.159zM604.816 354.761c14.786 0 26.771-12.101 26.771-27.028 0-14.927-11.986-27.028-26.771-27.028s-26.771 12.101-26.771 27.028c-0.001 14.927 11.985 27.028 26.771 27.028zM964.865 522.328c0-0.209-0.067-0.395-0.072-0.599 4.427-9.675 6.961-20.398 6.961-31.735 0-42.191-34.174-76.391-76.331-76.391-36.5 0-66.971 25.655-74.505 59.918a46.157 46.157 0 0 0-3.088 2.977c-6.378-35.741-37.524-62.894-75.071-62.894-37.65 0-68.858 27.303-75.116 63.191-0.704 0.761-1.428 1.503-2.08 2.313-5.292-37.018-37.015-65.504-75.468-65.504-39.041 0-71.18 29.349-75.727 67.194-0.327 0.448-0.7 0.856-1.01 1.317-3.942-38.488-36.43-68.511-75.927-68.511-39.044 0-71.187 29.356-75.727 67.205-0.506-0.676-0.982-1.374-1.517-2.026-5.431-36.86-37.078-65.179-75.419-65.179-38.053 0-69.51 27.896-75.293 64.349-0.807-0.92-1.619-1.835-2.489-2.695-6.865-35.132-37.765-61.654-74.882-61.654-42.158 0-76.333 34.2-76.333 76.391 0 3.248-0.697 6.427-0.304 9.57-0.439 2.524 0.253 5.103 0.253 7.755 0 13.512 5.977 25.602 15.395 33.855l112.068 168.761c0 16.579 13.428 30.016 29.991 30.016H814.91c16.564 0 29.991-13.438 29.991-30.016l110.433-172.701a76.515 76.515 0 0 0 8.073-12.625l1.458-2.282zM411.355 279.676h34.215c5.337 0 9.664-4.327 9.664-9.664v-21.32c0-5.337-4.326-9.663-9.664-9.663h-34.215c-5.337 0-9.664 4.326-9.664 9.663v21.32c0 5.337 4.327 9.664 9.664 9.664zM428.462 417.88v-141.708M605.544 414.743c29.602 0 53.599-24.171 53.599-53.985s-23.997-20.244-53.599-20.244c-29.603 0-53.6-9.57-53.6 20.244 0 29.815 23.997 53.985 53.6 53.985zM185.609 163.552h665.068c10.674 0 19.327-8.653 19.327-19.327v-169.204c0-10.674-8.653-19.327-19.327-19.327H185.609c-10.674 0-19.327 8.653-19.327 19.327V144.224c0 10.675 8.652 19.328 19.327 19.328zM279.74 743.31l-74.901-260.994s20.319-70.741 68.483-65.473 80.539 9.478 86.864 61.938c6.662 55.251 23.888 263.011 23.888 263.011L279.74 743.31zM512.099 736.496l1.259-254.381s31.498-84.243 82.553-70.815c51.054 13.428 77.761 54.983 74.62 67.55-3.142 12.567-34.61 261.693-34.61 261.693l-123.822-4.047zM734.817 735.139l81.232-268.093s43.443-62.751 79.645-57.924c36.202 4.827 95.333 56.717 68.784 111.021-26.548 54.304-142.396 214.996-142.396 214.996h-87.265zM313.575 81.567c12.431 0 23.358-3.296 32.78-9.885l13.936 22.537c-11.648 10.41-26.763 15.618-45.343 15.618-12.302 0-22.312-2.175-30.032-6.524-9.814-5.535-14.722-14.104-14.722-25.701 0-10.546 5.036-18.519 15.114-23.921 4.711-2.372 14.262-5.338 28.658-8.896 9.422-2.243 14.133-4.878 14.133-7.908 0-1.452-3.141-2.175-9.422-2.175-11.909 0-24.996 4.612-39.258 13.839l-14.722-26.096c17.927-11.732 35.985-17.595 54.176-17.595 10.468 0 19.497 2.304 27.088 6.919 9.422 5.536 14.133 13.375 14.133 23.526 0 19.109-13.023 32.289-39.061 39.539a3510.142 3510.142 0 0 1-18.844 4.547c0.394 1.45 4.187 2.176 11.386 2.176z m170.402 15.816c-9.686 8.303-22.641 12.455-38.865 12.455-11.517 0-24.275-3.231-38.276-9.687 0.393 7.38 2.812 18.846 7.263 34.399l-30.228 5.14c-6.938-31.369-10.403-55.355-10.403-71.961 0-17.926 3.729-38.881 11.188-62.867l29.836 6.722c-5.496 19.637-8.244 34.529-8.244 44.679 0 3.293 0.196 6.326 0.589 9.094 11.253 8.17 23.291 12.257 36.117 12.257 16.881 0 25.321-7.448 25.321-22.34 0-12.257-2.944-26.624-8.833-43.098l30.032-7.315c6.542 19.504 9.814 37.825 9.814 54.96-0.001 16.211-5.104 28.73-15.311 37.562z m132.126-0.198c-11.385 8.433-25.585 12.653-42.595 12.653-18.19 0-32.912-4.22-44.165-12.653-12.826-9.36-19.236-23.001-19.236-40.923 0-17.397 6.803-30.643 20.414-39.737 11.514-7.778 26.303-11.664 44.361-11.664 16.881 0 30.882 4.547 42.006 13.641 12.038 9.885 18.058 23.13 18.058 39.737 0 16.606-6.281 29.586-18.843 38.946z m-22.574-56.936c-5.367-3.429-12.17-5.14-20.414-5.14-7.852 0-14.593 1.646-20.218 4.942-6.674 3.688-10.011 9.159-10.011 16.409 0 7.642 2.944 13.573 8.833 17.793 5.232 3.688 11.842 5.536 19.825 5.536 8.373 0 15.439-1.582 21.199-4.745 7.195-4.087 10.796-9.885 10.796-17.397 0.001-7.647-3.336-13.445-10.01-17.398z m160.588 55.948c-10.992 9.094-24.996 13.641-42.006 13.641-12.562 0-23.751-2.966-33.565-8.896l0.785 4.152-28.069 4.942c-3.404-13.709-5.103-29.985-5.103-48.831 0-13.181 1.178-27.152 3.533-41.912 3.141-18.713 7.523-31.959 13.151-39.737l29.836 9.292c-2.748 6.197-5.76 14.432-9.029 24.712 9.029-5.801 19.301-8.699 30.817-8.699 16.224 0 29.64 4.479 40.239 13.443 11.253 9.619 16.881 22.272 16.881 37.958-0.001 16.869-5.825 30.179-17.47 39.935z m-20.807-54.762c-4.975-3.954-11.385-5.931-19.236-5.931-13.219 0-25.781 6.061-37.687 18.188v12.455c4.447 3.688 10.403 6.787 17.862 9.292 7.588 2.502 14.329 3.756 20.218 3.756 7.327 0 13.348-1.649 18.058-4.942 5.364-3.824 8.048-9.227 8.048-16.211 0-7.384-2.423-12.919-7.263-16.607zM142.714 587.179l-2.505-3.911M196.187 667.749l-37.758-58.962M85.789 496.876s-6.739-62.223 60.57-53.644"  horiz-adv-x="1024" />

    
    <glyph glyph-name="gouwuchekong" unicode="&#58882;" d="M332.8 105.472q19.456 0 36.864-7.168t30.208-19.968 20.48-30.208 7.68-36.864-7.68-36.864-20.48-30.208-30.208-20.48-36.864-7.68q-20.48 0-37.888 7.68t-30.208 20.48-20.48 30.208-7.68 36.864 7.68 36.864 20.48 30.208 30.208 19.968 37.888 7.168zM758.784 103.424q19.456 0 37.376-7.168t30.72-19.968 20.48-30.208 7.68-36.864-7.68-36.864-20.48-30.208-30.72-20.48-37.376-7.68-36.864 7.68-30.208 20.48-20.48 30.208-7.68 36.864 7.68 36.864 20.48 30.208 30.208 19.968 36.864 7.168zM930.816 685.056q28.672 0 44.544-7.68t22.528-18.944 6.144-24.064-3.584-22.016-13.312-37.888-22.016-62.976-23.552-68.096-18.944-53.248q-13.312-40.96-33.28-56.832t-49.664-15.872l-35.84 0-65.536 0-86.016 0-96.256 0-253.952 0 14.336-92.16 517.12 0q49.152 0 49.152-41.984 0-20.48-9.728-35.84t-38.4-14.336l-49.152 0-94.208 0-118.784 0-119.808 0-99.328 0-55.296 0q-20.48 0-34.304 9.216t-23.04 24.064-14.848 32.256-8.704 32.768q-1.024 6.144-5.632 29.696t-11.264 58.88-14.848 78.848-16.384 87.552q-19.456 103.424-44.032 230.4l-76.8 0q-15.36 0-25.6 7.68t-16.896 18.432-9.216 23.04-2.56 22.528q0 20.48 13.824 33.792t37.376 12.288l103.424 0q20.48 0 32.768-6.144t19.456-15.36 10.24-18.944 5.12-16.896q2.048-8.192 4.096-23.04t4.096-30.208q3.072-18.432 6.144-38.912l700.416 0zM892.928 593.92l-641.024 2.048 35.84-185.344 535.552-1.024z"  horiz-adv-x="1028" />

    
    <glyph glyph-name="dingwei" unicode="&#58890;" d="M512 673.413564c-74.807835 0-135.52144-59.810129-135.52144-133.594024s60.683489-133.594024 135.52144-133.594024 135.551556 59.780013 135.551556 133.594024C647.551556 613.603435 586.777719 673.413564 512 673.413564M512 896C312.422093 896 150.609494 746.8963 150.609494 562.918417c-0.030116-184.008 361.390506-690.918417 361.390506-690.918417s361.390506 506.910417 361.390506 690.918417C873.360391 746.836068 711.577907 896 512 896M510.945944 320.997588c-119.770837 0-228.940886 120.885124-228.940886 234.000353 0 113.145344 110.224104 212.979472 229.964826 212.979472S740.880654 667.028998 740.880654 553.91377C740.940886 440.888889 630.746897 320.997588 510.945944 320.997588"  horiz-adv-x="1024" />

    
    <glyph glyph-name="sousuo" unicode="&#58903;" d="M908.6 12.9l-155 155c28.1 30.9 50.5 66 66.8 104.4 19.3 45.6 29 94 29 143.9 0 49.9-9.8 98.3-29 143.9-18.6 44-45.3 83.5-79.2 117.5-33.9 33.9-73.5 60.6-117.5 79.2-45.6 19.3-94 29-143.9 29-49.9 0-98.3-9.8-143.9-29-44-18.6-83.5-45.3-117.5-79.2s-60.6-73.5-79.2-117.5c-19.3-45.6-29-94-29-143.9 0-49.9 9.8-98.3 29-143.9 18.6-44 45.3-83.5 79.2-117.5s73.5-60.6 117.5-79.2c45.6-19.3 94-29 143.9-29 49.9 0 98.3 9.8 143.9 29 38.5 16.3 73.6 38.7 104.4 66.8l155-155c3.5-3.5 8.1-5.3 12.7-5.3s9.2 1.8 12.7 5.3c7.1 7.1 7.1 18.5 0.1 25.5z m-428.8 69.7c-184 0-333.6 149.7-333.6 333.6 0 184 149.7 333.6 333.6 333.6 184 0 333.6-149.7 333.6-333.6 0-184-149.6-333.6-333.6-333.6z"  horiz-adv-x="1024" />

    
    <glyph glyph-name="-dunpai" unicode="&#59515;" d="M494.3 284.8h-78.1v46.5h78.1v25.3h-78.1v46.5h54.9L405.6 536h64.8l42.1-89.7c5.3-11.2 9.1-21.1 11.4-29.7 2.6 9.3 6.4 19.1 11.3 29.7l42.9 89.7h64.8l-66.3-132.8h55.8v-46.5h-79.2v-25.3h79.2v-46.5h-79.2v-98.5H494v98.4zM580.7 410.9L454.6 284.8h39.7v-98.5h59.1v98.5h79.2v46.6h-79.2v25.2h79.2v46.6h-55.8zM511.3 875C367.9 700.3 136.6 684.5 136.6 684.5v-419.2c0-207 374.7-374.7 374.7-374.7S886 58.4 886 265.3V684.5c0.1 0-231.2 15.8-374.7 190.5zM511.3-70.3l-7.8 3.5c-13.9 6.2-340.3 154.6-340.3 346.4V665.4l17.7 1.3c1.9 0.1 196.6 15.5 315.7 160.4L511.3 845 526 827c119-144.9 313.7-160.3 315.7-160.4l17.7-1.3v-385.7c0-191.8-326.4-340.2-340.3-346.4l-7.8-3.5z m-310 700.9v-351c0-152.5 261.3-284.7 310-308.1 48.8 23.3 310.1 155.6 310.1 308.1v351c-51.3 6.9-201.5 36.6-310.1 155.3-108.5-118.7-258.7-148.4-310-155.3zM511.3 788.6C401.7 667.2 248.2 638.2 199 631.8v-353c0-154.9 266-288.5 312.4-310.6 46.4 22.1 312.3 155.8 312.3 310.6v353c-49.2 6.4-202.8 35.4-312.4 156.8zM511.3 788.6c-2.1-2.3-4.3-4.3-6.4-6.6v-810.8c2.4-1.2 4.6-2.2 6.4-3.1 46.4 22.1 312.3 155.8 312.3 310.6v353c-49.1 6.5-202.7 35.5-312.3 156.9zM489 289.8l-89.8 89.8c-11.1 11.1-11.1 29.2 0 40.3s29.2 11.1 40.3 0l49.5-49.5 120.1 120.1c11.1 11.1 29.2 11.1 40.3 0 11.1-11.1 11.1-29.2 0-40.3L489 289.8zM649.5 490.5c-11.1 11.1-29.2 11.1-40.3 0l-105-105v-80.6l145.4 145.4c11 11.1 11 29.1-0.1 40.2z"  horiz-adv-x="1024" />

    
    <glyph glyph-name="jiantouxia" unicode="&#58923;" d="M71.493818 532.410182L449.861818 86.132364a81.454545 81.454545 0 0 1 124.276364 0l378.368 446.277818A51.2 51.2 0 0 1 913.454545 616.727273H110.545455a51.2 51.2 0 0 1-39.051637-84.317091z"  horiz-adv-x="1024" />

    
    <glyph glyph-name="bianzu16" unicode="&#58895;" d="M853.352888-42.66897800000004a42.665511 42.665511 0 0 0 4.991865-85.032363l-4.991865-0.298659h-682.648178a42.665511 42.665511 0 0 0-4.949199 85.032364L170.662045-42.66897800000004h682.648178zM543.985267 881.679321l3.413241-4.394547 206.714401-303.991767 198.351962 183.333701c27.689917 25.599307 70.696752 5.205192 71.678058-29.609865L1023.972267 722.408968l-0.639982-4.778537-117.330156-639.982667a42.665511 42.665511 0 0 0-36.863002-34.687061l-5.119861-0.298658h-703.980934a42.665511 42.665511 0 0 0-40.745563 30.036519l-1.194634 4.9492-117.330156 639.982667c-7.12514 38.697619 37.033664 64.72358 67.240846 42.068194l3.669234-3.071917 198.26663-183.333701L476.787087 877.284774a42.665511 42.665511 0 0 0 67.155515 4.394547zM511.986134 777.490143L312.652866 484.335416a42.665511 42.665511 0 0 0-60.243702-10.581047l-3.967893 3.242579-140.710855 130.087143L195.621369 127.993067h632.814861l87.890953 479.091024L775.658993 476.996948a42.665511 42.665511 0 0 0-57.59844-0.341324l-3.498572 3.583903-3.114583 4.095889L511.986134 777.490143zM597.359822 298.65511100000003a42.665511 42.665511 0 0 0 4.991864-85.032363l-4.991864-0.298659h-170.662045a42.665511 42.665511 0 0 0-4.949199 85.032364L426.655111 298.65511100000003h170.662045z"  horiz-adv-x="1024" />

    
    <glyph glyph-name="gouwucheman" unicode="&#58880;" d="M346.112 89.088q19.456 0 36.864-7.168t30.208-19.968 20.48-30.208 7.68-36.864-7.68-36.864-20.48-30.208-30.208-20.48-36.864-7.68q-20.48 0-37.888 7.68t-30.208 20.48-20.48 30.208-7.68 36.864 7.68 36.864 20.48 30.208 30.208 19.968 37.888 7.168zM772.096 87.04q19.456 0 37.376-7.168t30.72-19.968 20.48-30.208 7.68-36.864-7.68-36.864-20.48-30.208-30.72-20.48-37.376-7.68-36.864 7.68-30.208 20.48-20.48 30.208-7.68 36.864 7.68 36.864 20.48 30.208 30.208 19.968 36.864 7.168zM944.128 668.672q28.672 0 44.544-7.68t22.528-18.944 6.144-24.064-3.584-22.016-13.312-37.888-22.016-62.976-23.552-68.096-18.944-53.248q-13.312-40.96-33.28-56.832t-49.664-15.872l-35.84 0-65.536 0-86.016 0-96.256 0-253.952 0 14.336-92.16 517.12 0q49.152 0 49.152-41.984 0-20.48-9.728-35.328t-38.4-14.848l-49.152 0-94.208 0-118.784 0-119.808 0-99.328 0-55.296 0q-20.48 0-34.304 9.216t-23.04 24.064-14.848 32.256-8.704 32.768q-1.024 6.144-5.632 29.696t-11.264 58.88-14.848 78.848-16.384 87.552q-19.456 103.424-44.032 230.4l-76.8 0q-15.36 0-25.6 7.68t-16.896 18.432-9.216 23.04-2.56 22.528q0 20.48 13.824 33.792t37.376 13.312l21.504 0 21.504 0 25.6 0 34.816 0q20.48 0 32.768-6.144t19.456-15.36 10.24-19.456 5.12-17.408q2.048-8.192 4.096-23.04t4.096-30.208q3.072-18.432 6.144-38.912l700.416 0zM867.328 701.44l-374.784 0 135.168 135.168q23.552 23.552 51.712 24.064t51.712-23.04z"  horiz-adv-x="1024" />

    
    <glyph glyph-name="gouwuche" unicode="&#58897;" d="M352.53359 66.077184c-35.238572 0-63.782675-28.54615-63.782675-63.786769 0-35.237549 28.545126-63.781652 63.782675-63.781652 35.240619 0 63.781652 28.545126 63.781652 63.781652C416.315242 37.532057 387.775232 66.077184 352.53359 66.077184L352.53359 66.077184 352.53359 66.077184zM799.016411 66.077184c-35.240619 0-63.787792-28.54615-63.787792-63.786769 0-35.237549 28.54615-63.781652 63.787792-63.781652 35.235502 0 63.781652 28.545126 63.781652 63.781652C862.798063 37.532057 834.251913 66.077184 799.016411 66.077184L799.016411 66.077184 799.016411 66.077184zM862.28641 97.965451 344.276533 97.965451c-45.957705 0-86.36295 36.354999-91.976808 82.759889l-54.087872 380.784516L167.436942 739.464851c-1.913583 15.526625-16.074094 28.223808-29.913287 28.223808l-40.627303 0c-17.607006 0-31.894408 14.287401-31.894408 31.887244 0 17.605983 14.287401 31.894408 31.894408 31.894408l40.627303 0c46.530756 0 87.383186-36.356023 93.028766-82.760912l30.710442-177.281659 54.313-382.409526c1.784646-14.799054 15.176654-27.270087 28.700669-27.270087l518.010901 0c17.635659 0 31.893384-14.253632 31.893384-31.888268C894.179794 112.223177 879.923092 97.965451 862.28641 97.965451L862.28641 97.965451zM384.140449 225.533872c-16.549931 0-30.550807 12.754488-31.766494 29.562293-1.304715 17.572214 11.895935 32.848129 29.435403 34.122145l432.643628 31.895431c15.878642 0.092098 29.27372 12.564154 31.026644 26.754341l50.228985 287.404756c1.27504 10.715039-1.687432 22.452361-8.096399 29.722952-4.116761 4.656043-9.28548 7.016811-15.309684 7.016811L320.133669 672.012599c-17.605983 0-31.893384 14.287401-31.893384 31.894408 0 17.599843 14.287401 31.887244 31.893384 31.887244l552.167838 0c24.364921 0 46.749744-10.107195 63.046918-28.511357 18.627243-21.017686 27.172873-50.6424 23.440875-81.352843l-50.258661-287.439548c-5.421476-44.712341-45.797046-81.068364-91.753727-81.068364l-430.278767-31.795147C385.702014 225.563548 384.903835 225.533872 384.140449 225.533872L384.140449 225.533872zM384.140449 225.533872"  horiz-adv-x="1024" />

    
    <glyph glyph-name="weibiaoti2fuzhi12" unicode="&#58921;" d="M768 230.4c-6.4 6.4-12.8 12.8-19.2 12.8-19.2 0-32-12.8-32-32 0-12.8 6.4-19.2 12.8-25.6l0 0 0 0c76.8-57.6 128-147.2 134.4-249.6l57.6 0C915.2 57.6 857.6 160 768 230.4M524.8 339.2c-115.2 0-211.2 96-211.2 211.2C307.2 672 403.2 768 524.8 768c115.2 0 211.2-96 211.2-211.2C736 435.2 640 339.2 524.8 339.2zM800 550.4c0 153.6-121.6 281.6-281.6 281.6C371.2 832 243.2 710.4 243.2 550.4c0-102.4 57.6-192 140.8-243.2C224 262.4 108.8 115.2 102.4-64l57.6 0C166.4 121.6 320 268.8 505.6 275.2l6.4 0c6.4 0 6.4 0 12.8 0C678.4 275.2 800 396.8 800 550.4z"  horiz-adv-x="1024" />

    
    <glyph glyph-name="emoji-" unicode="&#59307;" d="M476.1 445.8m-428.1 0a428.1 428.1 0 1 1 856.2 0 428.1 428.1 0 1 1-856.2 0ZM476.1 7.6c-59.1 0-116.5 11.6-170.5 34.4-52.2 22.1-99 53.7-139.3 93.9-40.2 40.2-71.8 87.1-93.9 139.3C49.6 329.2 38 386.6 38 445.8s11.6 116.5 34.4 170.5c22.1 52.2 53.7 99 93.9 139.3s87.1 71.8 139.3 93.9c54 22.8 111.4 34.4 170.5 34.4 59.1 0 116.5-11.6 170.5-34.4 52.2-22.1 99-53.7 139.3-93.9s71.8-87.1 93.9-139.3c22.8-54 34.4-111.4 34.4-170.5s-11.6-116.5-34.4-170.5c-22.1-52.2-53.7-99-93.9-139.3-40.2-40.2-87.1-71.8-139.3-93.9-53.9-22.9-111.3-34.5-170.5-34.5z m0 856.3c-56.5 0-111.2-11.1-162.8-32.9-49.8-21.1-94.5-51.2-132.9-89.6-38.4-38.4-68.6-83.1-89.6-132.9C69.1 557 58 502.2 58 445.8S69.1 334.6 90.9 283c21.1-49.8 51.2-94.5 89.6-132.9 38.4-38.4 83.1-68.6 132.9-89.6 51.5-21.8 106.3-32.9 162.8-32.9 56.5 0 111.2 11.1 162.8 32.9 49.8 21.1 94.5 51.2 132.9 89.6s68.6 83.1 89.6 132.9c21.8 51.5 32.9 106.3 32.9 162.8s-11.2 111.2-33 162.7c-21.1 49.8-51.2 94.5-89.6 132.9C733.4 779.8 688.7 810 638.9 831c-51.5 21.8-106.3 32.9-162.8 32.9zM476.1 480.1m-393.8 0a393.8 393.8 0 1 1 787.6 0 393.8 393.8 0 1 1-787.6 0ZM476.1 7.6c-59.1 0-116.5 11.6-170.5 34.4-52.2 22.1-99 53.7-139.3 93.9-40.2 40.2-71.8 87.1-93.9 139.3C49.6 329.2 38 386.6 38 445.8s11.6 116.5 34.4 170.5c22.1 52.2 53.7 99 93.9 139.3s87.1 71.8 139.3 93.9c54 22.8 111.4 34.4 170.5 34.4 59.1 0 116.5-11.6 170.5-34.4 52.2-22.1 99-53.7 139.3-93.9s71.8-87.1 93.9-139.3c22.8-54 34.4-111.4 34.4-170.5s-11.6-116.5-34.4-170.5c-22.1-52.2-53.7-99-93.9-139.3-40.2-40.2-87.1-71.8-139.3-93.9-53.9-22.9-111.3-34.5-170.5-34.5z m0 856.3c-56.5 0-111.2-11.1-162.8-32.9-49.8-21.1-94.5-51.2-132.9-89.6-38.4-38.4-68.6-83.1-89.6-132.9C69.1 557 58 502.2 58 445.8S69.1 334.6 90.9 283c21.1-49.8 51.2-94.5 89.6-132.9 38.4-38.4 83.1-68.6 132.9-89.6 51.5-21.8 106.3-32.9 162.8-32.9 56.5 0 111.2 11.1 162.8 32.9 49.8 21.1 94.5 51.2 132.9 89.6s68.6 83.1 89.6 132.9c21.8 51.5 32.9 106.3 32.9 162.8s-11.2 111.2-33 162.7c-21.1 49.8-51.2 94.5-89.6 132.9C733.4 779.8 688.7 810 638.9 831c-51.5 21.8-106.3 32.9-162.8 32.9zM340.1 770.9a136 44 0 1 1 272 0 136 44 0 1 1-272 0ZM190.9 339.5a50.7 31.4 0 1 1 101.4 0 50.7 31.4 0 1 1-101.4 0ZM660 339.5a50.7 31.4 0 1 1 101.4 0 50.7 31.4 0 1 1-101.4 0ZM276.5 404.3c-5.5 0-10 4.5-10 10 0 13.8-11.2 24.9-24.9 24.9s-24.9-11.2-24.9-24.9c0-5.5-4.5-10-10-10s-10 4.5-10 10c0 24.8 20.2 44.9 44.9 44.9s44.9-20.2 44.9-44.9c0-5.5-4.5-10-10-10zM745.7 404.3c-5.5 0-10 4.5-10 10 0 13.8-11.2 24.9-24.9 24.9s-24.9-11.2-24.9-24.9c0-5.5-4.5-10-10-10s-10 4.5-10 10c0 24.8 20.2 44.9 44.9 44.9 24.8 0 44.9-20.2 44.9-44.9 0-5.5-4.5-10-10-10zM567.6 142.8s-68.6-12.9-91.4-12.9-91.4 12.9-91.4 12.9c-58.8 16.5-92.9 60.8-92.9 103.6s41.8 52.1 92.9 52.1c0 0 68.6-12.9 91.4-12.9s91.4 12.9 91.4 12.9c51.1 0 92.9-9.3 92.9-52.1s-42.2-83.1-92.9-103.6zM476.1 119.9c-23.5 0-90.5 12.5-93.3 13-0.3 0.1-0.6 0.1-0.9 0.2-29.9 8.4-55.3 24-73.4 45-17.3 20.1-26.8 44.4-26.8 68.2 0 24 11.1 41.2 33.1 51.2 16.3 7.4 38.5 10.9 69.7 10.9 0.6 0 1.2-0.1 1.8-0.2 0.7-0.1 67.9-12.7 89.6-12.7 21.7 0 88.9 12.6 89.6 12.7 0.6 0.1 1.2 0.2 1.8 0.2 31.3 0 53.4-3.5 69.7-10.9 22-10 33.1-27.3 33.1-51.2 0-22.8-10.4-46-30.1-67-17.5-18.6-42-34.9-69-45.9-0.6-0.2-1.3-0.4-1.9-0.6-2.5-0.4-69.4-12.9-93-12.9zM387 152.5c5.8-1.1 68.4-12.6 89.2-12.6 20.2 0 80.2 11 88.6 12.5 24 9.9 45.6 24.3 61 40.7 16.2 17.2 24.7 35.7 24.7 53.3 0 20.7-9.8 41.9-82 42.1-8.7-1.6-70-12.9-92.4-12.9-22.3 0-83.7 11.3-92.4 12.9-72.2-0.2-82-21.4-82-42.1 0-19.1 7.8-38.7 22-55.2 15.5-18 37.4-31.3 63.3-38.7zM358.6 152.1c-0.9 0-1.9 0.1-2.8 0.4-5.3 1.5-8.3 7.1-6.8 12.4l39.1 133.9c1.5 5.3 7.1 8.3 12.4 6.8 5.3-1.5 8.3-7.1 6.8-12.4l-39.1-133.9c-1.3-4.4-5.3-7.2-9.6-7.2zM593.7 147.2c-4.3 0-8.3 2.8-9.6 7.2L545 288.3c-1.5 5.3 1.5 10.9 6.8 12.4s10.9-1.5 12.4-6.8L603.3 160c1.5-5.3-1.5-10.9-6.8-12.4-0.9-0.2-1.9-0.4-2.8-0.4zM476.1 132.8c-5.5 0-10 4.5-10 10V285.6c0 5.5 4.5 10 10 10s10-4.5 10-10v-142.8c0-5.6-4.4-10-10-10zM141.8-71.3a334.3 34.2 0 1 1 668.6 0 334.3 34.2 0 1 1-668.6 0ZM478.8 202.6c-25.4 0-51.1 1.8-76.7 5.4-68.5 9.6-112.4 28.4-114.3 29.2-5.1 2.2-7.4 8.1-5.2 13.2s8.1 7.4 13.2 5.2c14.9-6.4 56.9-20.5 109.7-27.9 38.6-5.4 77.4-6.5 115.2-3.4 47.1 3.9 92.9 14.4 136.1 31.4 5.1 2 10.9-0.5 13-5.7s-0.5-10.9-5.7-13c-45.1-17.7-93-28.7-142.2-32.7-14.2-1.1-28.7-1.7-43.1-1.7zM865.1 398.6l39.9-73.1 73-39.9-73-39.9-39.9-73-40 73-73 39.9 73 39.9zM865.1 162.7c-3.7 0-7 2-8.8 5.2l-38.5 70.4-70.4 38.5c-3.2 1.8-5.2 5.1-5.2 8.8s2 7 5.2 8.8l70.4 38.5 38.5 70.4c1.8 3.2 5.1 5.2 8.8 5.2s7-2 8.8-5.2l38.5-70.4 70.4-38.5c3.2-1.8 5.2-5.1 5.2-8.8s-2-7-5.2-8.8l-70.4-38.5-38.5-70.4c-1.8-3.2-5.2-5.2-8.8-5.2zM773 285.6l57-31.2c1.7-0.9 3.1-2.3 4-4l31.2-57 31.2 57c0.9 1.7 2.3 3.1 4 4l57 31.2-57 31.2c-1.7 0.9-3.1 2.3-4 4l-31.2 57-31.2-57c-0.9-1.7-2.3-3.1-4-4l-57-31.2z"  horiz-adv-x="1024" />

    
    <glyph glyph-name="emoji-1" unicode="&#59314;" d="M124.2 484.4c0-0 0-0 0-0 0-214.728 174.072-388.8 388.8-388.8 214.728 0 388.8 174.072 388.8 388.8 0 0 0 0 0 0 0 214.728-174.072 388.8-388.8 388.8-214.728 0-388.8-174.072-388.8-388.8zM513 85.6c-53.8 0-106.1 10.5-155.2 31.3-47.5 20.1-90.1 48.8-126.8 85.5s-65.4 79.3-85.5 126.8c-20.8 49.2-31.3 101.4-31.3 155.2s10.5 106.1 31.3 155.2c20.1 47.5 48.8 90.1 85.5 126.8s79.3 65.4 126.8 85.5c49.1 20.8 101.4 31.3 155.2 31.3s106.1-10.5 155.2-31.3c47.5-20.1 90.2-48.9 126.8-85.5s65.4-79.3 85.5-126.8c20.8-49.2 31.3-101.4 31.3-155.2s-10.5-106.1-31.3-155.2c-20.1-47.5-48.8-90.1-85.5-126.8s-79.3-65.4-126.8-85.5c-49.1-20.7-101.4-31.3-155.2-31.3zM513 863.2c-51.1 0-100.7-10-147.4-29.8-45.1-19.1-85.6-46.4-120.4-81.2-34.8-34.7-62.2-75.2-81.2-120.3-19.7-46.7-29.8-96.3-29.8-147.4s10-100.7 29.8-147.4c19.1-45.1 46.4-85.6 81.2-120.4 34.8-34.8 75.3-62.1 120.4-81.2 46.7-19.8 96.3-29.8 147.4-29.8 51.1 0 100.7 10 147.4 29.8 45.1 19.1 85.6 46.4 120.4 81.2 34.8 34.7 62.2 75.2 81.2 120.3 19.8 46.7 29.8 96.3 29.8 147.4s-10 100.7-29.8 147.4c-19.1 45.1-46.4 85.6-81.2 120.4-34.8 34.8-75.3 62.1-120.4 81.2-46.7 19.8-96.3 29.8-147.4 29.8zM155.4 515.6c0-197.497 160.103-357.6 357.6-357.6s357.6 160.103 357.6 357.6c0 197.497-160.103 357.6-357.6 357.6-197.497 0-357.6-160.103-357.6-357.6zM513 85.6c-53.8 0-106.1 10.5-155.2 31.3-47.5 20.1-90.1 48.8-126.8 85.5s-65.4 79.3-85.5 126.8c-20.8 49.2-31.3 101.4-31.3 155.2s10.5 106.1 31.3 155.2c20.1 47.5 48.8 90.1 85.5 126.8s79.3 65.4 126.8 85.5c49.1 20.8 101.4 31.3 155.2 31.3s106.1-10.5 155.2-31.3c47.5-20.1 90.2-48.9 126.8-85.5s65.4-79.3 85.5-126.8c20.8-49.2 31.3-101.4 31.3-155.2s-10.5-106.1-31.3-155.2c-20.1-47.5-48.8-90.1-85.5-126.8s-79.3-65.4-126.8-85.5c-49.1-20.7-101.4-31.3-155.2-31.3zM513 863.2c-51.1 0-100.7-10-147.4-29.8-45.1-19.1-85.6-46.4-120.4-81.2-34.8-34.7-62.2-75.2-81.2-120.3-19.7-46.7-29.8-96.3-29.8-147.4s10-100.7 29.8-147.4c19.1-45.1 46.4-85.6 81.2-120.4 34.8-34.8 75.3-62.1 120.4-81.2 46.7-19.8 96.3-29.8 147.4-29.8 51.1 0 100.7 10 147.4 29.8 45.1 19.1 85.6 46.4 120.4 81.2 34.8 34.7 62.2 75.2 81.2 120.3 19.8 46.7 29.8 96.3 29.8 147.4s-10 100.7-29.8 147.4c-19.1 45.1-46.4 85.6-81.2 120.4-34.8 34.8-75.3 62.1-120.4 81.2-46.7 19.8-96.3 29.8-147.4 29.8zM389.5 779.7c0-22.091 55.293-40 123.5-40s123.5 17.909 123.5 40c0 22.091-55.293 40-123.5 40-68.207 0-123.5-17.909-123.5-40zM513 329.4c-62.9 0-121.7 7.5-172.4 20.5-18.3 4.7-35.5-10.9-31.6-28.7 20-90.9 103.7-159 204-159s184 68.2 204 159c3.9 17.8-13.4 33.4-31.6 28.7-50.7-13.1-109.5-20.5-172.4-20.5zM513 152.1c-50.3 0-99.4 16.9-138.3 47.6-38.4 30.3-65.2 72.7-75.5 119.3-2.5 11.4 1.1 23.2 9.7 31.5 9.1 8.8 21.9 12.1 34.2 9 51.4-13.2 110.1-20.2 169.9-20.2s118.6 7 169.9 20.2c12.3 3.2 25.1-0.2 34.2-9 8.6-8.3 12.2-20.1 9.7-31.5-10.3-46.6-37.1-89-75.5-119.3-38.9-30.6-88-47.6-138.3-47.6zM334 340.7c-4.1 0-8.1-1.6-11.2-4.5-3.6-3.5-5.1-8.2-4.1-12.8 9.3-42.1 33.5-80.4 68.3-107.9 35.4-27.9 80.1-43.3 125.9-43.3 45.8 0 90.6 15.4 125.9 43.3 34.8 27.5 59.1 65.8 68.3 107.9 1 4.7-0.4 9.4-4.1 12.8-4.1 3.9-9.8 5.4-15.3 4-53-13.6-113.4-20.8-174.9-20.8s-121.9 7.2-174.9 20.8c-1.2 0.3-2.6 0.5-3.9 0.5zM254 388c0-15.74 20.595-28.5 46-28.5s46 12.76 46 28.5c0 15.74-20.595 28.5-46 28.5-25.405 0-46-12.76-46-28.5zM680 388c0-15.74 20.595-28.5 46-28.5s46 12.76 46 28.5c0 15.74-20.595 28.5-46 28.5-25.405 0-46-12.76-46-28.5zM209.4-87.7c-0-17.176 135.926-31.1 303.6-31.1s303.6 13.924 303.6 31.1c0 17.176-135.926 31.1-303.6 31.1-167.674 0-303.6-13.924-303.6-31.1zM128.1 619.5c0-83.561 67.739-151.3 151.3-151.3s151.3 67.739 151.3 151.3c0 83.561-67.739 151.3-151.3 151.3-83.561 0-151.3-67.739-151.3-151.3zM279.4 458.2c-89 0-161.3 72.4-161.3 161.3s72.4 161.3 161.3 161.3 161.3-72.4 161.3-161.3-72.3-161.3-161.3-161.3zM279.4 760.9c-77.9 0-141.3-63.4-141.3-141.3s63.4-141.3 141.3-141.3 141.3 63.4 141.3 141.3-63.3 141.3-141.3 141.3zM128.1 635.1c0-74.945 67.739-135.7 151.3-135.7s151.3 60.755 151.3 135.7c0 74.945-67.739 135.7-151.3 135.7-83.561 0-151.3-60.755-151.3-135.7zM279.4 458.2c-89 0-161.3 72.4-161.3 161.3s72.4 161.3 161.3 161.3 161.3-72.4 161.3-161.3-72.3-161.3-161.3-161.3zM279.4 760.9c-77.9 0-141.3-63.4-141.3-141.3s63.4-141.3 141.3-141.3 141.3 63.4 141.3 141.3-63.3 141.3-141.3 141.3zM268.8 535.9v18.8c-9.4 1.2-17 3.3-22.9 6.3s-10.9 7.9-15.2 14.6c-4.3 6.7-6.8 15-7.5 24.7l18.9 3.5c1.5-10.1 4-17.5 7.7-22.2 5.3-6.7 11.6-10.4 19-11.2v59.7c-7.7 1.5-15.6 4.4-23.7 9-6 3.3-10.6 8-13.8 13.9-3.2 5.9-4.8 12.6-4.8 20.1 0 13.3 4.7 24.2 14.2 32.4 6.3 5.6 15.7 9 28.1 10.2v9h11.1v-9c10.9-1 19.6-4.2 26-9.6 8.2-6.8 13.1-16.2 14.8-28l-19.4-2.9c-1.1 7.4-3.4 13-6.9 16.9s-8.3 6.5-14.4 7.8v-54.1c9.5-2.4 15.7-4.2 18.8-5.5 5.8-2.6 10.6-5.7 14.3-9.4 3.7-3.7 6.5-8.1 8.5-13.1 2-5.1 3-10.6 3-16.5 0-13-4.1-23.8-12.4-32.5s-19-13.3-32.1-14v-19h-11.3zM268.8 700.2c-7.3-1.1-13-4-17.3-8.8-4.2-4.7-6.3-10.3-6.3-16.8 0-6.4 1.8-11.7 5.4-16.1 3.6-4.3 9.6-7.8 18.2-10.3v52zM279.8 570.5c7.3 0.9 13.3 4.1 18.1 9.5s7.1 12.1 7.1 20.1c0 6.8-1.7 12.3-5.1 16.4-3.4 4.1-10.1 7.8-20.2 11.1v-57.1zM594.1 619.5c0-83.561 67.739-151.3 151.3-151.3s151.3 67.739 151.3 151.3c0 83.561-67.739 151.3-151.3 151.3-83.561 0-151.3-67.739-151.3-151.3zM745.4 458.2c-89 0-161.3 72.4-161.3 161.3s72.4 161.3 161.3 161.3 161.3-72.4 161.3-161.3-72.4-161.3-161.3-161.3zM745.4 760.9c-77.9 0-141.3-63.4-141.3-141.3s63.4-141.3 141.3-141.3 141.3 63.4 141.3 141.3-63.4 141.3-141.3 141.3zM594.1 635.1c0-74.945 67.739-135.7 151.3-135.7s151.3 60.755 151.3 135.7c0 74.945-67.739 135.7-151.3 135.7-83.561 0-151.3-60.755-151.3-135.7zM745.4 458.2c-89 0-161.3 72.4-161.3 161.3s72.4 161.3 161.3 161.3 161.3-72.4 161.3-161.3-72.4-161.3-161.3-161.3zM745.4 760.9c-77.9 0-141.3-63.4-141.3-141.3s63.4-141.3 141.3-141.3 141.3 63.4 141.3 141.3-63.4 141.3-141.3 141.3zM734.7 535.9v18.8c-9.4 1.2-17 3.3-22.9 6.3s-10.9 7.9-15.2 14.6c-4.3 6.7-6.8 15-7.5 24.7l18.9 3.5c1.5-10.1 4-17.5 7.7-22.2 5.3-6.7 11.6-10.4 19-11.2v59.7c-7.7 1.5-15.6 4.4-23.7 9-6 3.3-10.6 8-13.8 13.9-3.2 5.9-4.8 12.6-4.8 20.1 0 13.3 4.7 24.2 14.2 32.4 6.3 5.6 15.7 9 28.2 10.2v9h11.1v-9c10.9-1 19.6-4.2 26-9.6 8.2-6.8 13.1-16.2 14.8-28l-19.4-2.9c-1.1 7.4-3.4 13-6.9 16.9s-8.3 6.5-14.4 7.8v-54.1c9.5-2.4 15.7-4.2 18.8-5.5 5.8-2.6 10.6-5.7 14.3-9.4 3.7-3.7 6.5-8.1 8.5-13.1 2-5.1 3-10.6 3-16.5 0-13-4.1-23.8-12.4-32.5s-19-13.3-32.1-14v-19h-11.4zM734.7 700.2c-7.3-1.1-13.1-4-17.3-8.8-4.2-4.7-6.3-10.3-6.3-16.8 0-6.4 1.8-11.7 5.4-16.1 3.6-4.3 9.6-7.8 18.2-10.3v52zM745.8 570.5c7.3 0.9 13.3 4.1 18.1 9.5 4.8 5.4 7.1 12.1 7.1 20.1 0 6.8-1.7 12.3-5.1 16.4-3.4 4.1-10.1 7.8-20.2 11.1v-57.1zM522.4 30c-40 0-72.7 30.8-72.7 68.5v114.9c0 37.7 32.7 5.3 72.7 5.3s72.7 32.3 72.7-5.3v-114.9c0-37.7-32.7-68.5-72.7-68.5zM522.4 20c-45.6 0-82.7 35.2-82.7 78.5v114.9c0 7.6 1 18.4 9.3 24.4 9.7 7.1 22.1 3.1 36.6-1.5 11.1-3.5 23.7-7.6 36.9-7.6s25.8 4 36.9 7.6c14.5 4.6 26.9 8.6 36.6 1.5 8.3-6.1 9.3-16.8 9.3-24.4v-114.9c-0.2-43.3-37.3-78.5-82.9-78.5zM460.7 221.7c-0.3-0.6-1.1-2.8-1.1-8.2v-114.9c0-32.3 28.1-58.5 62.7-58.5s62.7 26.2 62.7 58.5v114.8c0 5.4-0.8 7.6-1.1 8.2-3 0.6-12.4-2.4-18.7-4.4-11.9-3.8-26.7-8.5-42.9-8.5s-31.1 4.7-42.9 8.5c-6.3 2.1-15.7 5.1-18.7 4.5zM522.4 181.5c-40 0-72.7-21.8-72.7-12.5v57.9c0 9.3 32.7-4.9 72.7-4.9s72.7 14.2 72.7 4.9v-57.9c0-9.4-32.7 12.5-72.7 12.5zM522.4 20c-45.6 0-82.7 35.2-82.7 78.5v114.9c0 7.6 1 18.4 9.3 24.4 9.7 7.1 22.1 3.1 36.6-1.5 11.1-3.5 23.7-7.6 36.9-7.6s25.8 4 36.9 7.6c14.5 4.6 26.9 8.6 36.6 1.5 8.3-6.1 9.3-16.8 9.3-24.4v-114.9c-0.2-43.3-37.3-78.5-82.9-78.5zM460.7 221.7c-0.3-0.6-1.1-2.8-1.1-8.2v-114.9c0-32.3 28.1-58.5 62.7-58.5s62.7 26.2 62.7 58.5v114.8c0 5.4-0.8 7.6-1.1 8.2-3 0.6-12.4-2.4-18.7-4.4-11.9-3.8-26.7-8.5-42.9-8.5s-31.1 4.7-42.9 8.5c-6.3 2.1-15.7 5.1-18.7 4.5zM653-9.7c0-15.3-12.4-27.7-27.7-27.7s-27.7 12.4-27.7 27.7 27.7 59.3 27.7 59.3 27.7-44 27.7-59.3zM625.3-47.4c-20.8 0-37.7 16.9-37.7 37.7 0 5.2 1.6 15 15 40.1 7 13.1 13.9 24 14.2 24.5 1.8 2.9 5 4.7 8.5 4.7s6.6-1.8 8.5-4.7c0.3-0.5 7.2-11.4 14.2-24.5 13.5-25.1 15-34.9 15-40.1 0-20.8-16.9-37.7-37.7-37.7zM625.3 30.2c-9.6-16.7-17.7-33.9-17.7-39.9 0-9.8 7.9-17.7 17.7-17.7 9.8 0 17.7 7.9 17.7 17.7 0 4.9-6.6 20.5-17.7 39.9z"  horiz-adv-x="1024" />

    
    <glyph glyph-name="shouye" unicode="&#58899;" d="M737.2 26.8H595c-22.3 0-40.4 18.1-40.4 40.4V282.1h-85.1v-214.9c0-22.3-18.1-40.4-40.4-40.4H286.8c-22.3 0-40.4 18.1-40.4 40.4v296h-78c-16.4 0-31.1 9.8-37.3 24.9-6.3 15.2-2.8 32.4 8.8 44l1.4 1.3 343 296.7c7.5 7.1 17.3 11 27.7 11s20.2-3.9 27.7-11l343.7-297.3 0.7-0.7c11.6-11.6 15-28.9 8.8-44-6.3-15.2-20.9-24.9-37.3-24.9h-78v-296c0-22.3-18.1-40.4-40.4-40.4z m-131.1 51.6H726v296c0 22.3 18.1 40.4 40.4 40.4h59.1L512 686 198.5 414.8h59.1c22.3 0 40.4-18.1 40.4-40.4v-296h119.9V293.3c0 22.3 18.1 40.4 40.4 40.4h107.4c22.3 0 40.4-18.1 40.4-40.4v-214.9z"  horiz-adv-x="1024" />

    
    <glyph glyph-name="fenlei-" unicode="&#58886;" d="M383.1 290.2H159.7c-32.6 0-59.2-26.6-59.2-59.2v-223.4c0-32.6 26.6-59.2 59.2-59.2h223.4c32.6 0 59.2 26.6 59.2 59.2V231c-0.1 32.6-26.6 59.2-59.2 59.2z m19.1-282.6c0-10.6-8.6-19.2-19.2-19.2H159.7c-10.6 0-19.2 8.6-19.2 19.2V231c0 10.6 8.6 19.2 19.2 19.2h223.4c10.6 0 19.2-8.6 19.2-19.2v-223.4zM383.1 721.2H159.7c-32.6 0-59.2-26.6-59.2-59.2v-223.4c0-32.6 26.6-59.2 59.2-59.2h223.4c32.6 0 59.2 26.6 59.2 59.2V662c-0.1 32.7-26.6 59.2-59.2 59.2z m19.1-282.5c0-10.6-8.6-19.2-19.2-19.2H159.7c-10.6 0-19.2 8.6-19.2 19.2V662c0 10.6 8.6 19.2 19.2 19.2h223.4c10.6 0 19.2-8.6 19.2-19.2v-223.3zM833.6 290.2H610.3c-32.6 0-59.2-26.6-59.2-59.2v-223.4c0-32.6 26.6-59.2 59.2-59.2h223.4c32.6 0 59.2 26.6 59.2 59.2V231c-0.1 32.6-26.6 59.2-59.3 59.2z m19.2-282.6c0-10.6-8.6-19.2-19.2-19.2H610.3c-10.6 0-19.2 8.6-19.2 19.2V231c0 10.6 8.6 19.2 19.2 19.2h223.4c10.6 0 19.2-8.6 19.2-19.2v-223.4zM905.9 598.4L759.3 745c-23.9 23.9-62.9 23.9-86.9 0L525.9 598.5c-11.6-11.6-18-27.1-18-43.5s6.4-31.8 18-43.5L672.6 365c12-12 27.7-18 43.4-18s31.5 6 43.4 18l146.5 146.5c11.6 11.6 18 27 18 43.4s-6.4 31.9-18 43.5z m-28.3-58.6L731.1 393.3c-8.4-8.4-21.9-8.4-30.3 0L554.2 539.8c-4.1 4.1-6.3 9.5-6.3 15.2s2.2 11.1 6.3 15.2l146.5 146.5c4.2 4.2 9.7 6.3 15.2 6.3s11-2.1 15.2-6.3l146.6-146.6c4-4 6.3-9.4 6.3-15.2-0.1-5.6-2.3-11-6.4-15.1z"  horiz-adv-x="1024" />

    
    <glyph glyph-name="shouye1" unicode="&#58887;" d="M915.477 409L536.379 788.01c-13.464 13.464-35.294 13.376-48.759-0.089L108.521 409c-10.26-10.26-12.69-25.858-7.312-38.134 0.301-0.778 0.662-1.524 1.08-2.235l0.014-0.029c0.025-0.04 0.062-0.105 0.103-0.177l0.007 0.002c2.693-4.419 7.542-7.38 13.096-7.38 0.493 0 0.978 0.005 1.459 0.05 0.018-0.024 0.042-0.097 0.06-0.097H183v-356.32c0-19.366 16.243-34.68 35.609-34.68h585.597C823.572-30 838-14.686 838 4.68V361h67.274c0.809 0 1.812 0.023 2.609 0.023 5.557 0 10.867 2.904 13.559 7.328 0.134-0.025-0.133 0.023 0 0 6.984 12.6 5.04 29.645-5.965 40.649zM630 23H391V234.36c0 65.845 53.655 126.236 119.5 126.236S630 300.205 630 234.36V23z"  horiz-adv-x="1024" />

    
    <glyph glyph-name="icon-test" unicode="&#58900;" d="M742 560c0 135.6-110.3 245.9-245.9 245.9S250.3 695.6 250.3 560c0-135.6 110.3-245.9 245.9-245.9S742 424.5 742 560z m-75.4-28.2c9.6 0 17.3-7.8 17.3-17.3 0-9.6-7.8-17.3-17.3-17.3-9.6 0-17.3 7.8-17.3 17.3 0 9.6 7.8 17.3 17.3 17.3z m-300.8-94.9c-2.7 2.6-5.4 5.2-7.9 7.9-3.9 4.1-3.7 10.6 0.4 14.5 4.1 3.9 10.6 3.7 14.5-0.4 2.3-2.4 4.7-4.8 7.2-7.1 32.1-30.2 72.9-46.9 115.1-46.9 51.5 0 100.3 24.7 134.1 67.7 3.5 4.5 9.9 5.2 14.4 1.7s5.2-9.9 1.7-14.4c-37.7-48-92.4-75.5-150.2-75.5-47.5 0-93.4 18.7-129.3 52.5zM645.2 460c3.5 4.4 2.7 10.9-1.7 14.4-4.5 3.5-10.9 2.7-14.4-1.7-33.8-43-82.7-67.7-134.1-67.7-42.2 0-83.1 16.6-115.1 46.9-2.4 2.3-4.8 4.7-7.2 7.1-3.9 4.1-10.4 4.3-14.5 0.4s-4.3-10.4-0.4-14.5c2.6-2.7 5.2-5.3 7.9-7.9 35.9-33.8 81.7-52.5 129.2-52.5 57.9-0.1 112.6 27.5 150.3 75.5zM666.6 514.5m-17.3 0a17.3 17.3 0 1 1 34.6 0 17.3 17.3 0 1 1-34.6 0ZM142.9-62h720.4c0 181.8-125 333.3-290.6 367 109.6 33 189.8 134.8 189.8 255 0 146.9-119.5 266.3-266.3 266.3S229.8 706.9 229.8 560c0-122.4 83.1-225.8 195.8-256.8C263.9 266.5 142.9 116.9 142.9-62z m107.4 622c0 135.6 110.3 245.9 245.9 245.9S742 695.6 742 560c0-135.6-110.3-245.9-245.9-245.9S250.3 424.5 250.3 560z"  horiz-adv-x="1024" />

    
    <glyph glyph-name="2" unicode="&#58915;" d="M85.333333 810.666667m85.333334 0l213.333333 0q85.333333 0 85.333333-85.333334l0-213.333333q0-85.333333-85.333333-85.333333l-213.333333 0q-85.333333 0-85.333334 85.333333l0 213.333333q0 85.333333 85.333334 85.333334ZM85.333333 341.33333300000004m85.333334 0l213.333333 0q85.333333 0 85.333333-85.333333l0-213.333333q0-85.333333-85.333333-85.333334l-213.333333 0q-85.333333 0-85.333334 85.333334l0 213.333333q0 85.333333 85.333334 85.333333ZM554.666667 810.666667m85.333333 0l213.333333 0q85.333333 0 85.333334-85.333334l0-213.333333q0-85.333333-85.333334-85.333333l-213.333333 0q-85.333333 0-85.333333 85.333333l0 213.333333q0 85.333333 85.333333 85.333334ZM512 170.66666699999996c0 117.76 95.658667 213.333333 213.333333 213.333333 117.76 0 213.333333-95.658667 213.333334-213.333333 0-117.76-95.658667-213.333333-213.333334-213.333334-117.76 0-213.333333 95.658667-213.333333 213.333334z m85.333333 0c0-70.570667 57.386667-128 128-128 70.570667 0 128 57.386667 128 128 0 70.570667-57.386667 128-128 128-70.570667 0-128-57.386667-128-128zM823.168 12.501333000000045l85.333333-85.333333a42.666667 42.666667 0 0 1 60.330667 60.330667l-85.333333 85.333333a42.666667 42.666667 0 0 1-60.330667-60.330667z"  horiz-adv-x="1024" />

    


  </font>
</defs>
</svg>
